<svg xmlns="http://www.w3.org/2000/svg" viewBox="0 0 21.34 25.27"><defs><style>.cls-1{fill:#fff;stroke:#1d1d1b;stroke-miterlimit:10;}</style></defs><title>Asset 2</title><g id="Layer_2" data-name="Layer 2"><g id="Layer_1-2" data-name="Layer 1"><path class="cls-1" d="M20,24.46h0A1.93,1.93,0,0,1,17.48,24l-6.86-9.16h0L3.81,23.24a1.94,1.94,0,0,1-2.57.34h0A1.61,1.61,0,0,1,.87,21.2l7.55-9.28L2.07,3.43a1.62,1.62,0,0,1,.46-2.36h0A2,2,0,0,1,5.1,1.5l5.65,7.55,6.41-7.87A1.94,1.94,0,0,1,19.73.84h0a1.61,1.61,0,0,1,.37,2.38L13,12l7.55,10.1A1.61,1.61,0,0,1,20,24.46Z"/></g></g></svg>